<svg xmlns="http://www.w3.org/2000/svg" viewBox="0 0 1675.8 798.61"><defs><style>.cls-1{fill:none;stroke:#fff;stroke-miterlimit:10;stroke-width:8px;}</style></defs><g id="Layer_2" data-name="Layer 2"><g id="Layer_4" data-name="Layer 4"><path class="cls-1" d="M397.38,756.19c-51.48,0-105.65-20.07-148.61-55.06C172.2,638.78,137,535.9,159.14,439c16.07-70.38,57-104.41,100.3-140.43,13.68-11.38,27.83-23.15,41.62-36.36,26.27-25.17,37.29-59.92,28.77-90.69C322.19,144,300.37,124.2,270,117.29a141.53,141.53,0,0,0-31.29-3.68c-38.11,0-70.85,17.39-97.3,51.7C72.52,254.61,63.77,437.1,87.81,528.62l.7,2.65c6.82,25.87,18.24,69.18,3.81,87.91-4.83,6.26-12.15,9.3-22.39,9.3-1.69,0-3.48-.08-5.32-.26-20.34-1.89-33.84-22.79-41.25-63.89C5.64,466.1.16,383.52,6.61,311.86c4-44.4,12.77-84.93,26.05-120.45,14.77-39.49,35.59-74,61.86-102.61,36.28-39.48,97.79-64,160.54-64,35.52,0,68.92,7.91,96.6,22.88,30.78,16.63,53.48,41.05,67.47,72.56,9.79,22.06,12.57,48.32,8,75.94a182.2,182.2,0,0,1-29,72.16C379.24,296,348.31,316,315.58,337.23c-46.78,30.34-95.14,61.7-105.72,117.23-23.8,125,98.5,221.3,193,249.78,16.18,4.88,35.14,14.1,33.59,30.35-1.87,19.51-27.55,21.33-32.67,21.5-2.1.07-4.23.1-6.34.1Z"/><path class="cls-1" d="M454.77,668.9c-43.41,0-104-48.45-126.69-72-27.38-31.56-44.86-63.3-52-94.35-6.24-27.25-4.1-53.59,6.2-76.16a106.92,106.92,0,0,1,42.45-47.14A124.22,124.22,0,0,1,389,361.9c57.24,0,111.35,35.41,148.46,97.17,2.42,4,4.81,8,7.21,12.07,11.71,19.71,23.83,40.1,38,58.3,27.92,35.91,65.86,60.12,109.73,70,16.27,3.67,21.27,15.57,20.51,25.48a27.74,27.74,0,0,1-26.16,25.42c-2.14.15-4.3.23-6.43.23-29,0-56.85-14-85.21-42.63-25-25.28-46.9-58.47-66.24-87.76q-3.76-5.72-7.45-11.26c-1.37-2.06-3-4.88-4.83-8.14C509.25,488,500.16,472,489,471.1c-.36,0-.71,0-1.07,0-13.25,0-28.1,20.47-30.94,24.57a199.21,199.21,0,0,0-11,18.69c-7,13-14.3,26.42-25.57,33.62a28,28,0,0,1-15,4.57c-11,0-22.37-7.77-23-25.13-1.09-28.83,33.08-57.84,39.94-63.37,1.25-1,3.52-2.49,6.16-4.22,13.85-9.08,26.24-18,25.86-27.66-.17-4.29-2.91-7.92-8.14-10.78a89.26,89.26,0,0,0-42.79-10.66c-26.33,0-50.74,11-65.3,29.43-10.05,12.72-20.31,35.09-12.14,69.45,11.62,48.87,57.69,80.53,94.3,98.49,6.49,3.18,13.62,5.52,20.52,7.79,11.44,3.75,23.26,7.63,32.26,15.41A23.77,23.77,0,0,1,481,653a17,17,0,0,1-11.1,13.38,43.32,43.32,0,0,1-15.1,2.5Z"/><path class="cls-1" d="M653.94,792.46c-3.89,0-7.81-.12-11.65-.35h-.14c-18.8-.19-48.68-3.7-76.16-13-21.72-7.33-49.73-21-59.93-44.63-3.92-11.09-2.94-20.9,2.9-29.18,8.26-11.71,24-16.95,36-16.95a39.46,39.46,0,0,1,5.52.37c16.61,2.35,32.82,9.66,48.51,16.74,15.88,7.16,32.3,14.57,49.65,17.22A115.46,115.46,0,0,0,665.82,724c40.42,0,89-22.47,106.42-72.64l0-.12,0-.12c20.35-79.88-46.11-139.42-105.45-175.3-70.72-41.49-122.85-89.16-155-141.72-40.37-66-47.4-138.08-20.91-214.19,12-34.53,35.11-63.91,66.76-85C586.67,15.68,621.09,4.7,654.64,4h1.19c14,0,26,4.87,31.25,12.72,3.75,5.59,4,12.44.76,20.36-7.45,18.17-29,24.75-49.82,31.11a206.92,206.92,0,0,0-22,7.59c-72.91,32-90.49,111.11-76,171.1,23.46,96.87,91.26,137.73,156.83,177.25,32.17,19.38,65.44,39.43,93.31,65.92C818,519.38,835.3,558.5,839.09,600.22c4.93,50.88-9.2,96.2-40.85,131-34.79,38.31-88.73,61.19-144.29,61.19Z"/><path class="cls-1" d="M1024.46,386.11a14.17,14.17,0,0,1-5.8-1.41c-10.08-4.59-17.62-19.8-23.68-32-1.26-2.52-2.44-4.91-3.59-7.1a420.67,420.67,0,0,0-73.13-100.23c-1.35-1.36-2.73-2.76-4.12-4.19-16.69-17-35.61-36.28-56.12-36.28-9.61,0-18.64,4.39-26.84,13-23.2,24.45-57.73,53.59-90.46,53.59-.62,0-1.25,0-1.87,0-5.9-.21-20-2.1-23.88-15.19-7.87-26.73,26.69-38.65,57.18-49.17,17.08-5.89,31.84-11,38.77-18.29,5.33-4.52,7.84-9.34,7.46-14.33-.48-6.42-5.64-12.55-15.78-18.74-24.8-15.4-48.83-23.21-71.39-23.21-51.2,0-80.74,39.66-83.45,78.83-2.89,41.68,23.43,94.49,107.09,106.13H755c3.68.35,7.41.63,11,.9,17.67,1.32,34.35,2.58,49.58,11.17,7.11,4,12.18,12.13,12.91,20.68a20.43,20.43,0,0,1-7.33,18.07c-6.7,4.76-16,7.18-27.65,7.18h0c-25.86,0-57.79-11.66-78.91-19.38l-5-1.81-.13,0c-46.27-14.53-85.15-49.11-101.46-90.23-13.91-35.08-10.73-72.43,9.21-108,28.86-41.7,67.4-62.85,114.55-62.85,86.1,0,178.91,70.16,228.71,135.35l1.92,2.44c30.05,38,64.11,81.16,73.35,131.39,1.42,7.69-.08,15.56-3.81,20A9.47,9.47,0,0,1,1024.46,386.11Z"/><path class="cls-1" d="M863.84,794.61a21.62,21.62,0,0,1-14.92-5.76c-15.12-13.43-2.31-31.05,14.65-51,4.43-5.22,8.26-9.72,10.6-13.61,31-51.38,29.7-122.17-3.42-189.36-1.33-2.72-2.75-5.54-4.22-8.46-18.66-37.14-44.22-88-4.84-116,15.62-11.11,31.09-16.74,45.95-16.74,19.23,0,38.11,9.41,56.11,27.95,15.54,16,30.48,38.86,44.41,67.89,23.9,49.81,40.69,109.41,48.43,148.59.12.56,11.56,56.91,37.58,56.91,28.56-.14,30.41-35,31.2-49.86,10.35-194.87-51.35-459.1-259.29-562.46-4.06-2-9.29-4-15.34-6.23-22.09-8.25-52.35-19.55-47.65-43.92,2.64-13.73,12-20.4,28.53-20.4,43.18,0,119.39,46.42,136,58.9,67,50.31,116.28,111.49,150.65,187,47.14,103.57,69.65,227.87,63.38,350-3.34,65.09-15.61,111.59-38.6,146.33-14.89,22.49-38.21,36.46-60.86,36.46h0c-18,0-33.63-8.79-45.07-25.43-13.94-20.29-17.68-48.36-21.29-75.5-1.16-8.71-2.25-16.93-3.67-24.89-1.84-8.93-3.62-18.09-5.33-26.95-9.8-50.63-19.93-103-47.84-144.6l-.07-.11-.09-.1c-11.72-14.55-26-23.24-38.2-23.24-7.45,0-13.36,3.25-16.64,9.15-6,10.76-2.32,27.84,10.28,48.1,2.54,4.35,5.13,8.66,7.63,12.83,12.26,20.37,23.83,39.62,29.54,65.39,6.4,28.9,6.36,57.28-.12,84.37a168.89,168.89,0,0,1-37.43,72.5C907.28,769.93,884.15,794.61,863.84,794.61Z"/><path class="cls-1" d="M1236.73,756c-13.38,0-23.82-7.74-31-23-8.63-18.31,1-42.22,9.39-63.32,2.74-6.84,5.33-13.3,7.14-19.2,53.81-170.48,6.35-375.35-118.1-509.77-5.6-6.25-12.08-12.3-18.93-18.72-16.32-15.26-33.2-31-39.9-51.28-3.55-10.69-3.22-20.26,1-28.42,7.13-13.86,24-21.56,36.92-25.59a214,214,0,0,1,49.8-5.83c47.33,0,97,15.3,143.78,44.25,44.58,27.61,84.17,66,114.48,110.94,28.65,42.51,47,88.49,54.41,136.66,6.71,43.47,4.78,89.91-5.76,138-17.32,79.07-57.12,163.26-121.68,257.37-16,23.33-53,57.85-81.51,57.85Zm-90-683.18c-20.74,0-32.75,3.92-35.71,11.64-2.48,6.46,1.59,14.35,12.45,24.11,70.4,63.28,124.21,153.3,151.52,253.48,16,58.71,22,120.24,18,182.87-.72,11.19.77,18.85,4.45,22.78a9,9,0,0,0,6.74,2.95c6.48,0,14.39-6.47,22.26-18.22,22.34-33.35,45.45-67.83,53.7-110.8,19.4-101-9-214-72.26-287.84-36.5-43.51-88.72-72.65-143.24-79.93A148,148,0,0,0,1146.78,72.82Z"/><path class="cls-1" d="M1468.89,698.17a83,83,0,0,1-27.85-4.62c-9.56-3.41-16-9.26-19.54-17.9-12.69-30.6,14.19-87.32,28.63-117.79,1.45-3.07,2.79-5.91,4-8.45,3.3-7.12,6.72-14.34,10-21.32,30-63.52,61.07-129.2,47.81-207.14-7.5-44.1-24.8-87.94-50-126.77-25.79-39.72-44.11-74.09-26.3-124.34,9.61-27.13,32.73-43.33,61.85-43.33a77.42,77.42,0,0,1,24,3.82c52.77,17.12,92.63,36.66,121.85,59.73,14.24,11.24,29.37,24.82,28.5,43.69-.91,19.7-13.7,22.64-21.25,22.64h0c-8.08,0-17.24-3.22-24.51-8.62-9.91-7.36-17.46-16.44-24.77-25.22-13-15.68-25.37-30.5-49.27-34.86a69.53,69.53,0,0,0-12.59-1.12c-24.42,0-42.27,11.36-47.72,30.39-6.69,23.35,8.93,51.7,21.49,74.48,3.52,6.4,6.84,12.43,9.28,17.66,6.57,14.09,15.82,20.94,28.29,20.94,11.54,0,23.81-5.93,35.67-11.66l4.71-2.26c8.34-4,20.34-8.67,30.19-8.67,11,0,16.18,5.85,16.21,18.41.06,27.08-24.4,40.8-77,43.17a12.46,12.46,0,0,0-9.27,4.91,15.74,15.74,0,0,0-3,12.73l.13.66c7.72,40.77,15,79.27,14.64,116.31-.42,41.35-10.36,74.84-31.31,105.39-2.2,3.21-4.56,6.51-6.85,9.71-9.67,13.52-19.68,27.51-24.13,43.07-3.68,12.87-1.78,25.58,5.22,34.86a28.23,28.23,0,0,0,22.94,11.6c8.44,0,17.26-3.6,25.52-10.41,18-14.82,34.14-37.54,44.35-62.33.67-1.62,1.33-3.27,2-4.92,3.92-9.83,8-20,15.51-27.2,6.61-6.34,16.89-10.27,26.83-10.27,8.82,0,16.41,3.08,21.38,8.67,8.44,9.52,7.44,23.74,6.09,31.37-3.75,21.18-27.22,58.76-41.21,73.75C1590.09,649,1524.51,698.17,1468.89,698.17Z"/></g></g></svg>