<svg xmlns="http://www.w3.org/2000/svg" viewBox="0 0 393.9 183.19"><g id="Layer_2" data-name="Layer 2"><g id="Layer_5" data-name="Layer 5"><path d="M92.11,174.17C55.45,176,31.58,146.15,35.45,110c3-28,17.64-35.37,31.11-48.17C81.53,47.38,75.45,28,53,28.4c-43.65.77-40,72.9-31.66,100.83.95,4.09,3.15,12.77-2.85,15.77s-10.27.25-11.95-6.88C-5.91,88-6.37,5.45,58.79,5.82,91.45,6,108.74,34.17,94.45,58,85.45,73,68,78.67,58.82,90.53c-21.53,26.55.19,66.18,32.08,67.86C102.45,159,104.45,173,92.11,174.17Z"/><path d="M108.46,154c-95.57-16.34-23.74-126,27-33,6,11,17.48,15.62,27.75,17.92,4.5,1,6.12,6,3.15,9.68-5.9,7.4-24.9-1.6-33.9-10.6-8-8-15-26.73-19.12-26.83-6.88-.17-9,13.29-15.8,17.81-3.73,2.31-8.78-.33-9.08-6-.26-6.68,7.93-12.19,9.53-13.47,3.47-2.53,11.64-6.85,5.59-9.88C66.45,81,61.45,139,110.45,142,118.43,142.49,117.45,155,108.46,154Z"/><path d="M155.51,182.47c-14.06.53-27.86.13-39.06-5.47-4.68-2.34-5.25-9.48-.7-12.33,3.11-2,7.18-1.34,10.81-.56,20.85,5.62,53.71,7.09,53.81-21.75.08-20.36-22-25.87-36.23-36.34-6.88-5.11-13.69-10.3-19.64-16.52C89.7,54.56,105.45,0,161.45,0c6.08,0,14.11,2.37,12,10-1.39,5-13.13,4.76-17,5-33,2.09-42.51,36.12-24.85,60.11A75.82,75.82,0,0,0,147,90.26c16,11.44,32.34,11,43.2,30C206.23,147.58,187,181.3,155.51,182.47Z"/><path d="M246.61,97c-5.59,2-9.21-8-12.51-13-7.47-11.25-19.52-33-34.15-33-6.33-.13-10.43,6.09-14.71,10-13.17,12.17-28.45-2.61-9.61-10.69,5.26-2.75,20.81-7,11.43-12.4-32-18.59-57.3,29.13-10.85,37.66,5.48,1,15.31,1,14.47,8.31-1.51,11.42-21.27,3-27.22.87-39-14-32.22-62.51,7.55-62.46,20,0,39.16,12.72,52.79,26.46C230.2,55.32,259.57,92.31,246.61,97Z"/><path d="M203.31,183.17c-2.46-.21-4.95-1.83-5.47-4.34-.71-4.05,4.79-7.24,6.61-10.83,14.32-26-14.44-51.4-8.9-73.45,2.9-11.55,20.16-11,27.78-5.18A41.61,41.61,0,0,1,236.94,107c5.07,12.75,8.16,25.55,11.49,38.9,1,4.08,2.7,13.19,8.8,13.19,6.68,0,7.12-8.11,7.3-11.56C266.15,105.63,253.45,31,206,19.55c-4.45-1.07-12.5-2.49-12.5-8.55,0-7.21,7.58-7.68,13-7,48,6,68,69.94,71,115,.73,21,5,62-22,61.33-26.17-.66-20.1-80.65-40.82-78.33-9.15,1-1.15,14,1.51,18.26,9.34,14.76,12.64,35.33,3.38,50.41C215.45,177,211.15,183.6,203.31,183.17Z"/><path d="M284.45,175c-6.51-3.72,2-15,4-32,3.83-32.53-3-81-36.23-122-2.52-3.11-4.77-7-4.09-10.95,1.22-7,7.33-10,13-10,40.31,0,65.92,28.34,75.64,57.74,12.73,38.47.67,70.26-26.46,105.17C303.33,171.91,291.45,179,284.45,175Zm-15-158c-3,3,1.08,8.92,4.15,12.12C320.45,78,296.48,148.56,313.45,133c24-22,16-86-20.93-109.1C285.16,19.3,273.45,13,269.45,17Z"/><path d="M340,165.84c-27.5-.19-2.62-27.43,2.88-40.41C368.45,65,326.92,45.81,337.15,14.26c2.69-8.27,10-9.88,20.1-8.16C368.45,8,406.82,23,389.45,36c-8,6-9-11-32-14-14.83-1.93-3.54,34.67,11.9,28.78,3.23-1.23,7.13-4.8,10.72-4.2s6.12,4.42,4.59,7.86c-4,9-23.18,3.55-20.7,13.23,6.49,25.33-1,37.18-9.51,63.33-2.63,8.17,4,11,10.52,6.6,13.5-9,9.21-21.78,20.76-22.27,5.45-.33,7.47,5.47,6.43,9.28C386.93,144.19,363.45,166,340,165.84Z"/></g></g></svg>