<svg xmlns="http://www.w3.org/2000/svg" viewBox="0 0 394.9 184.19"><defs><style>.cls-1{fill:none;stroke:#fff;stroke-miterlimit:10;}</style></defs><g id="Layer_2" data-name="Layer 2"><g id="Layer_5" data-name="Layer 5"><path class="cls-1" d="M92.61,174.67C56,176.5,32.08,146.65,36,110.5c3-28,17.64-35.37,31.11-48.17C82,47.88,76,28.5,53.46,28.9c-43.65.77-40,72.9-31.66,100.83C22.75,133.82,25,142.5,19,145.5S8.68,145.75,7,138.62C-5.41,88.51-5.87,6,59.29,6.32,92,6.5,109.24,34.67,95,58.5,86,73.5,68.54,79.17,59.32,91c-21.53,26.55.19,66.18,32.08,67.86C103,159.5,105,173.5,92.61,174.67Z"/><path class="cls-1" d="M109,154.54c-95.57-16.34-23.74-126,27-33,6,11,17.48,15.62,27.75,17.92,4.5,1,6.12,6,3.15,9.68-5.9,7.4-24.9-1.6-33.9-10.6-8-8-15-26.73-19.12-26.83-6.88-.17-9,13.29-15.8,17.81-3.73,2.31-8.78-.33-9.08-6-.26-6.68,7.93-12.19,9.53-13.47,3.47-2.53,11.64-6.85,5.59-9.88C67,81.5,62,139.5,111,142.5,118.93,143,118,155.5,109,154.54Z"/><path class="cls-1" d="M156,183c-14.06.53-27.86.13-39.06-5.47-4.68-2.34-5.25-9.48-.7-12.33,3.11-2,7.18-1.34,10.81-.56,20.85,5.62,53.71,7.09,53.81-21.75.08-20.36-22-25.87-36.23-36.34C137.76,101.41,131,96.22,125,90,90.2,55.06,106,.5,162,.5c6.08,0,14.11,2.37,12,10-1.39,5-13.13,4.76-17,5-33,2.09-42.51,36.12-24.85,60.11a75.82,75.82,0,0,0,15.42,15.15c16,11.44,32.34,11,43.2,30C206.73,148.08,187.53,181.8,156,183Z"/><path class="cls-1" d="M247.11,97.54c-5.59,2-9.21-8-12.51-13-7.47-11.25-19.52-33-34.15-33-6.33-.13-10.43,6.09-14.71,10-13.17,12.17-28.45-2.61-9.61-10.69,5.26-2.75,20.81-7,11.43-12.4-32-18.59-57.3,29.13-10.85,37.66,5.48,1,15.31,1,14.47,8.31-1.51,11.42-21.27,3-27.22.87-39-14-32.22-62.51,7.55-62.46,20,0,39.16,12.72,52.79,26.46C230.7,55.82,260.07,92.81,247.11,97.54Z"/><path class="cls-1" d="M203.81,183.67c-2.46-.21-4.95-1.83-5.47-4.34-.71-4.05,4.79-7.24,6.61-10.83,14.32-26-14.44-51.4-8.9-73.45,2.9-11.55,20.16-11,27.78-5.18a41.61,41.61,0,0,1,13.61,17.65c5.07,12.75,8.16,25.55,11.49,38.9,1,4.08,2.7,13.19,8.8,13.19,6.68,0,7.12-8.11,7.3-11.56,1.62-41.92-11.08-116.55-58.58-128C202,19,194,17.56,194,11.5c0-7.21,7.58-7.68,13-7,48,6,68,69.94,71,115,.73,21,5,62-22,61.33-26.17-.66-20.1-80.65-40.82-78.33-9.15,1-1.15,14,1.51,18.26,9.34,14.76,12.64,35.33,3.38,50.41C216,177.5,211.65,184.1,203.81,183.67Z"/><path class="cls-1" d="M285,175.5c-6.51-3.72,2-15,4-32,3.83-32.53-3-81-36.23-122-2.52-3.11-4.77-7-4.09-10.95,1.22-7,7.33-10,13-10,40.31,0,65.92,28.34,75.64,57.74C350,96.71,338,128.5,310.82,163.41,303.83,172.41,292,179.5,285,175.5Zm-15-158c-3,3,1.08,8.92,4.15,12.12C321,78.5,297,149.06,314,133.5c24-22,16-86-20.93-109.1C285.66,19.8,274,13.5,270,17.5Z"/><path class="cls-1" d="M340.45,166.34c-27.5-.19-2.62-27.43,2.88-40.41C369,65.5,327.42,46.31,337.65,14.76c2.69-8.27,10-9.88,20.1-8.16C369,8.5,407.32,23.47,390,36.5c-8,6-9-11-32-14-14.83-1.93-3.54,34.67,11.9,28.78,3.23-1.23,7.13-4.8,10.72-4.2s6.12,4.42,4.59,7.86c-4,9-23.18,3.55-20.7,13.23,6.49,25.33-1,37.18-9.51,63.33-2.63,8.17,4,11,10.52,6.6,13.5-9,9.21-21.78,20.76-22.27,5.45-.33,7.47,5.47,6.43,9.28C387.43,144.69,364,166.5,340.45,166.34Z"/></g></g></svg>